<svg width="347" height="385" viewBox="0 0 347 385" fill="none" xmlns="http://www.w3.org/2000/svg">
<path d="M118.958 142.043C96.1577 175.643 91.791 210.043 92.4577 223.043C85.2577 215.443 76.791 212.209 73.4576 211.543C73.4576 197.143 78.4576 184.543 80.9576 180.043C69.3576 186.043 53.1243 189.876 46.4576 191.043L34.4576 158.043L71.9576 137.543C85.5576 129.943 96.291 120.376 99.9576 116.543C111.958 104.943 115.624 82.3763 115.958 72.543V55.043C117.958 30.2431 131.458 15.3764 137.958 11.043C168.358 -8.95697 197.624 2.7097 208.458 11.043C225.658 23.043 230.624 45.3764 230.958 55.043L231.458 78.5428C233.458 101.743 247.624 120.543 254.458 127.043L272.958 147.543C298.958 179.543 305.124 205.543 304.958 214.543C303.758 226.143 297.791 237.043 294.958 241.043C288.558 227.443 277.624 215.043 272.958 210.543C278.558 240.143 272.958 265.876 269.458 275.043C254.658 290.243 226.958 301.376 214.958 305.043C247.758 281.043 254.958 238.376 254.458 220.043C254.458 196.543 242.791 167.876 236.458 157.043C235.791 155.543 232.158 148.243 222.958 131.043C213.758 113.843 211.458 94.543 211.458 87.043V71.543C212.258 50.743 202.791 46.2095 197.958 46.5428C183.958 46.5428 181.458 61.8761 181.958 69.5428C173.958 65.5425 166.958 67.876 164.458 69.5428C165.658 49.9428 155.291 46.0428 149.958 46.5428C138.758 46.9428 135.624 58.7094 135.458 64.5428V78.5428C135.458 107.743 124.458 133.043 118.958 142.043Z" fill="url(#paint0_linear_63_644)"/>
<path d="M174.958 75.043H173.458H171.958C169.158 75.443 165.458 77.2096 163.958 78.043C159.158 80.843 151.958 83.543 148.958 84.543C138.958 88.143 144.791 94.3763 148.958 97.043C153.791 100.21 164.458 107.143 168.458 109.543C172.458 111.943 176.791 110.543 178.458 109.543C180.791 108.043 187.958 103.443 197.958 97.043C207.958 90.643 202.124 86.043 197.958 84.543C191.158 82.143 187.124 80.2096 185.958 79.543L179.458 76.043C177.858 75.243 175.791 75.043 174.958 75.043Z" fill="url(#paint1_linear_63_644)"/>
<path d="M49.9577 224.043L11.4577 127.543C3.05775 157.943 5.12432 170.377 6.95762 172.543C-10.2424 194.543 8.4576 207.377 19.9576 211.043L28.4577 232.543C7.65768 245.343 9.12435 265.543 12.4577 274.043L89.4577 241.543C78.6577 221.543 59.4576 222.217 49.9577 224.043Z" fill="url(#paint2_linear_63_644)"/>
<path d="M49.9577 224.043C74.9177 219.243 86.4576 235.543 89.4577 241.543L86.9416 242.543C75.2667 222.943 56.5803 224.376 48.6964 227.543L12.4641 136.543L11.4577 127.543L49.9577 224.043Z" fill="url(#paint3_linear_63_644)"/>
<path d="M28.4577 232.543C7.65768 245.343 9.12435 265.543 12.4577 274.043C7.45762 245.543 29.4576 234.043 29.3237 234.043C29.2166 234.043 28.7017 233.043 28.4577 232.543Z" fill="url(#paint4_linear_63_644)"/>
<path d="M93.9576 251.043L14.9576 284.543C14.9576 300.143 19.9576 319.71 22.4576 327.543C28.4576 344.343 37.6243 356.543 41.4576 360.543C46.6576 366.543 54.9576 367.376 58.4576 367.043L64.9576 366.543L75.4576 365.043C68.2576 358.243 62.1243 349.543 59.9576 346.043C52.7576 336.043 47.9576 316.876 46.4576 308.543C55.4576 327.543 55.4576 326.543 63.9576 338.543C70.7576 348.143 81.1243 355.876 85.4576 358.543C91.4576 362.543 99.6243 360.543 102.958 359.043L111.958 355.543L123.458 350.543C113.058 344.143 105.458 337.21 102.958 334.543C94.5576 326.143 87.1243 313.376 84.4576 308.043C91.2576 316.443 102.958 326.21 107.958 330.043C119.558 338.843 129.124 341.71 132.458 342.043C136.858 342.443 142.958 338.876 145.458 337.043L152.958 331.043L161.458 323.043C152.658 322.643 138.458 316.21 132.458 313.043C120.858 306.643 111.291 297.71 107.958 294.043C109.958 295.543 116.058 299.543 124.458 303.543C132.858 307.543 143.624 310.543 147.958 311.543C156.758 313.543 163.624 313.376 165.958 313.043C171.558 312.243 175.624 307.376 176.958 305.043L182.458 295.043C133.658 295.443 103.124 265.876 93.9576 251.043Z" fill="url(#paint5_linear_63_644)"/>
<path d="M14.9576 287.043V284.543L93.9576 251.043C105.958 269.443 125.139 280.284 132.958 284.043C153.758 294.043 171.458 295.043 182.458 295.043C173.658 296.243 162.124 294.876 157.458 294.043C141.458 292.043 123.458 282.21 116.458 277.043C103.658 268.643 95.391 257.876 93.0576 253.543L14.9576 287.043Z" fill="url(#paint6_linear_63_644)"/>
<path d="M107.958 294.043C127.458 314.543 150.458 322.043 161.458 323.043C141.058 326.643 115.291 306.876 104.958 296.543L107.958 294.043Z" fill="url(#paint7_linear_63_644)"/>
<path d="M101.458 333.043C109.058 341.043 119.291 348.043 123.458 350.543C102.258 348.543 85.9576 323.043 80.4576 310.543L84.4576 308.043C92.0576 322.443 98.9576 330.71 101.458 333.043Z" fill="url(#paint8_linear_63_644)"/>
<path d="M55.9576 339.043C61.5576 350.643 71.291 361.21 75.4576 365.043C50.2576 351.443 42.291 322.71 41.4576 310.043L46.4576 308.543C48.3581 319.312 51.959 329.747 54.4958 336.024C54.8933 336.842 55.3768 337.84 55.9576 339.043Z" fill="url(#paint9_linear_63_644)"/>
<path d="M178.458 323.043C150.458 355.443 117.458 368.876 104.458 371.543C241.258 418.743 315.791 328.21 335.958 277.043C372.358 171.443 307.791 102.71 270.958 81.543C341.358 142.343 322.291 221.543 303.958 253.543C266.358 313.543 204.624 324.876 178.458 323.043Z" fill="url(#paint10_linear_63_644)"/>
<path d="M331.458 258.043C298.658 344.843 213.458 365.543 174.958 365.043L165.958 384.543C269.958 390.543 323.958 311.71 337.958 271.543C370.358 169.143 306.791 102.21 270.958 81.543C347.758 139.543 343.291 223.376 331.458 258.043Z" fill="url(#paint11_linear_63_644)"/>
<path d="M296.458 290.543C252.058 357.743 177.791 359.543 145.958 352.043C147.291 351.21 150.958 348.743 154.958 345.543C218.558 355.943 275.958 313.21 296.458 290.543Z" fill="url(#paint12_linear_63_644)"/>
<defs>
<linearGradient id="paint0_linear_63_644" x1="169.709" y1="0" x2="169.709" y2="305.043" gradientUnits="userSpaceOnUse">
<stop stop-color="#FFDFB1"/>
<stop offset="1" stop-color="#FF7924"/>
</linearGradient>
<linearGradient id="paint1_linear_63_644" x1="173.458" y1="75.043" x2="173.458" y2="110.868" gradientUnits="userSpaceOnUse">
<stop stop-color="#FFCA94"/>
<stop offset="1" stop-color="#FFC381"/>
</linearGradient>
<linearGradient id="paint2_linear_63_644" x1="11.4544" y1="130.543" x2="82.2742" y2="238.462" gradientUnits="userSpaceOnUse">
<stop stop-color="#FFC17B"/>
<stop offset="1" stop-color="#FF852E"/>
</linearGradient>
<linearGradient id="paint3_linear_63_644" x1="11.4544" y1="130.543" x2="82.2742" y2="238.462" gradientUnits="userSpaceOnUse">
<stop offset="0.2" stop-color="#FFD09B" stop-opacity="0.3"/>
<stop offset="0.8" stop-color="#FFCF95" stop-opacity="0.5"/>
</linearGradient>
<linearGradient id="paint4_linear_63_644" x1="28.9576" y1="233.543" x2="10.9576" y2="273.043" gradientUnits="userSpaceOnUse">
<stop stop-color="#FFC88A" stop-opacity="0.2"/>
<stop offset="0.5" stop-color="#FFCA8D" stop-opacity="0.3"/>
<stop offset="1" stop-color="#FFCC8F" stop-opacity="0.1"/>
</linearGradient>
<linearGradient id="paint5_linear_63_644" x1="166.458" y1="268.543" x2="15.4576" y2="353.043" gradientUnits="userSpaceOnUse">
<stop stop-color="#FFCE8E"/>
<stop offset="1" stop-color="#FF8C37"/>
</linearGradient>
<linearGradient id="paint6_linear_63_644" x1="98.4576" y1="244.543" x2="56.4576" y2="383.543" gradientUnits="userSpaceOnUse">
<stop stop-color="#FFD39F" stop-opacity="0.5"/>
<stop offset="1" stop-color="#FFD094"/>
</linearGradient>
<linearGradient id="paint7_linear_63_644" x1="135.958" y1="279.543" x2="164.458" y2="326.543" gradientUnits="userSpaceOnUse">
<stop stop-color="#FFCF94" stop-opacity="0"/>
<stop offset="1" stop-color="#FFCF94"/>
</linearGradient>
<linearGradient id="paint8_linear_63_644" x1="115.458" y1="295.543" x2="157.958" y2="362.543" gradientUnits="userSpaceOnUse">
<stop stop-color="#FFCD91" stop-opacity="0"/>
<stop offset="1" stop-color="#FFCD91"/>
</linearGradient>
<linearGradient id="paint9_linear_63_644" x1="68.4576" y1="327.543" x2="95.9576" y2="363.043" gradientUnits="userSpaceOnUse">
<stop stop-color="#FFCC8F" stop-opacity="0"/>
<stop offset="1" stop-color="#FFCC8F"/>
</linearGradient>
<linearGradient id="paint10_linear_63_644" x1="290.958" y1="91.043" x2="137.958" y2="362.543" gradientUnits="userSpaceOnUse">
<stop stop-color="#FFE0B3"/>
<stop offset="1" stop-color="#FD7628"/>
</linearGradient>
<linearGradient id="paint11_linear_63_644" x1="398.458" y1="130.543" x2="138.458" y2="260.543" gradientUnits="userSpaceOnUse">
<stop stop-color="#FFE0B0"/>
<stop offset="1" stop-color="#FFBE80" stop-opacity="0"/>
</linearGradient>
<linearGradient id="paint12_linear_63_644" x1="198.458" y1="410.043" x2="126.458" y2="348.543" gradientUnits="userSpaceOnUse">
<stop stop-color="#FFC78B"/>
<stop offset="1" stop-color="#F68D43" stop-opacity="0"/>
</linearGradient>
</defs>
</svg>
